<?xml version="1.0" encoding="UTF-8" standalone="no"?>
<svg width="505px" height="93px" viewBox="0 0 505 93" version="1.1" xmlns="http://www.w3.org/2000/svg" xmlns:xlink="http://www.w3.org/1999/xlink">
    <!-- Generator: Sketch 50 (54983) - http://www.bohemiancoding.com/sketch -->
    <title>Artboard</title>
    <desc>Created with Sketch.</desc>
    <defs>
        <linearGradient x1="50%" y1="0%" x2="50%" y2="100%" id="linearGradient-1">
            <stop stop-color="#F5AF19" offset="0%"></stop>
            <stop stop-color="#F12711" offset="100%"></stop>
        </linearGradient>
        <path d="M11.6855491,76.7351543 C4.52981392,69.8311284 0.952,58.7920442 0.952,43.6175707 C0.952,28.4430971 4.52981392,17.4040129 11.6855491,10.4999871 C18.8412843,3.59596117 28.9993991,0.144 42.1601985,0.144 C55.3209978,0.144 65.4791127,3.59596117 72.6348479,10.4999871 C79.7905831,17.4040129 83.368397,28.4430971 83.368397,43.6175707 C83.368397,58.7920442 79.7905831,69.8311284 72.6348479,76.7351543 C65.4791127,83.6391802 55.3209978,87.0911413 42.1601985,87.0911413 C28.9993991,87.0911413 18.8412843,83.6391802 11.6855491,76.7351543 Z M47.6618166,65.9476677 C48.8844045,64.6531629 49.4956893,62.6395189 49.4956893,59.9066753 L49.4956893,27.328466 C49.4956893,24.5956224 48.8844045,22.5819784 47.6618166,21.2874736 C46.4392287,19.9929687 44.6053743,19.345726 42.1601985,19.345726 C39.7150227,19.345726 37.8811683,19.9929687 36.6585804,21.2874736 C35.4359924,22.5819784 34.8247077,24.5956224 34.8247077,27.328466 L34.8247077,59.9066753 C34.8247077,62.7114358 35.4359924,64.7430588 36.6585804,66.0016052 C37.8811683,67.2601516 39.7150227,67.8894153 42.1601985,67.8894153 C44.6053743,67.8894153 46.4392287,67.2421726 47.6618166,65.9476677 Z M87.0361424,85.5808932 L87.0361424,67.8894153 L92.4298857,67.8894153 L92.4298857,19.345726 L87.0361424,19.345726 L87.0361424,1.65424811 L151.545312,1.65424811 L151.545312,29.5938382 L132.451461,29.5938382 L132.451461,19.345726 L122.634848,19.345726 L122.634848,37.2529536 L138.923953,37.2529536 L138.923953,49.5506882 L122.634848,49.5506882 L122.634848,67.8894153 L136.766455,67.8894153 L136.766455,85.5808932 L87.0361424,85.5808932 Z M155.213057,85.5808932 L155.213057,67.8894153 L160.6068,67.8894153 L160.6068,19.345726 L155.213057,19.345726 L155.213057,1.65424811 L219.722227,1.65424811 L219.722227,29.5938382 L200.628375,29.5938382 L200.628375,19.345726 L190.811763,19.345726 L190.811763,37.2529536 L207.100867,37.2529536 L207.100867,49.5506882 L190.811763,49.5506882 L190.811763,67.8894153 L204.94337,67.8894153 L204.94337,85.5808932 L155.213057,85.5808932 Z M237.251892,85.311206 C231.102994,84.1245766 226.374526,82.7761543 223.066347,81.2658986 L223.066347,59.9066753 L246.798818,59.9066753 C246.798818,62.1361003 247.302229,63.7542071 248.309066,64.7610442 C249.315903,65.7678813 251.149757,66.2712923 253.810684,66.2712923 C256.040109,66.2712923 257.640237,65.929692 258.611115,65.2464811 C259.581994,64.5632702 260.067426,63.5384693 260.067426,62.1720475 C260.067426,61.0213765 259.599973,60.0325334 258.665053,59.2054887 C257.730133,58.3784439 256.112026,57.5334326 253.810684,56.6704293 L244.533446,53.4341834 C236.550666,50.4136721 230.815376,46.8538371 227.327405,42.7545717 C223.839433,38.6553064 222.095474,33.1177853 222.095474,26.1418425 C222.095474,17.655644 224.882213,11.2011958 230.455776,6.77830421 C236.029338,2.35541262 245.324463,0.144 258.341428,0.144 C264.598202,0.144 270.477323,0.773263754 275.978969,2.03181014 C281.480614,3.29035653 285.921419,4.96240022 289.301515,7.04799137 L289.301515,26.3575922 L267.726542,26.3575922 C267.726542,22.7617454 265.49715,20.963849 261.0383,20.963849 C258.880792,20.963849 257.35258,21.2335334 256.453618,21.7729105 C255.554656,22.3122875 255.105182,23.2651726 255.105182,24.6315944 C255.105182,25.8541823 255.626572,26.8250464 256.669368,27.5442157 C257.712163,28.2633851 259.420165,29.0185016 261.793424,29.8095879 L271.178537,33.0458339 C278.801732,35.6348436 284.357232,38.9969099 287.845204,43.1321338 C291.333175,47.2673576 293.077135,52.6790259 293.077135,59.367301 C293.077135,68.5007519 290.002732,75.4046742 283.853834,80.0792751 C277.704936,84.7538759 268.697475,87.0911413 256.83118,87.0911413 C249.927154,87.0911413 243.40079,86.4978355 237.251892,85.311206 Z M296.097631,85.5808932 L296.097631,67.8894153 L301.491374,67.8894153 L301.491374,19.345726 L296.097631,19.345726 L296.097631,1.65424811 L337.09008,1.65424811 L337.09008,19.345726 L331.696337,19.345726 L331.696337,67.8894153 L337.09008,67.8894153 L337.09008,85.5808932 L296.097631,85.5808932 Z M341.405074,67.8894153 L346.798818,67.8894153 L346.798818,19.4536009 L341.405074,19.4536009 L341.405074,1.65424811 L385.20227,1.65424811 C397.212398,1.65424811 406.759228,4.9443986 413.843046,11.5247983 C420.926865,18.105198 424.468721,28.8026818 424.468721,43.6175707 C424.468721,58.4324595 420.926865,69.1299434 413.843046,75.710343 C406.759228,82.2907427 397.212398,85.5808932 385.20227,85.5808932 L341.405074,85.5808932 L341.405074,67.8894153 Z M383.260522,67.8894153 C385.705698,67.8894153 387.539552,67.2421726 388.76214,65.9476677 C389.984728,64.6531629 390.596013,62.6395189 390.596013,59.9066753 L390.596013,27.328466 C390.596013,22.0066127 388.150874,19.345726 383.260522,19.345726 L377.00378,19.345726 L377.00378,67.8894153 L383.260522,67.8894153 Z M428.136466,85.5808932 L428.136466,67.8894153 L433.530209,67.8894153 L433.530209,19.345726 L428.136466,19.345726 L428.136466,1.65424811 L500.952,1.65424811 L500.952,34.2324574 L476.78803,34.2324574 L476.78803,19.345726 L463.735172,19.345726 L463.735172,36.3899547 L473.22816,36.3899547 L473.22816,48.6876893 L463.735172,48.6876893 L463.735172,67.8894153 L476.78803,67.8894153 L476.78803,50.8451866 L500.952,50.8451866 L500.952,85.5808932 L428.136466,85.5808932 Z" id="path-2"></path>
    </defs>
    <g id="Artboard" stroke="none" stroke-width="1" fill="none" fill-rule="evenodd">
        <path d="M15.6855491,81.7351543 C8.52981392,74.8311284 4.952,63.7920442 4.952,48.6175707 C4.952,33.4430971 8.52981392,22.4040129 15.6855491,15.4999871 C22.8412843,8.59596117 32.9993991,5.144 46.1601985,5.144 C59.3209978,5.144 69.4791127,8.59596117 76.6348479,15.4999871 C83.7905831,22.4040129 87.368397,33.4430971 87.368397,48.6175707 C87.368397,63.7920442 83.7905831,74.8311284 76.6348479,81.7351543 C69.4791127,88.6391802 59.3209978,92.0911413 46.1601985,92.0911413 C32.9993991,92.0911413 22.8412843,88.6391802 15.6855491,81.7351543 Z M51.6618166,70.9476677 C52.8844045,69.6531629 53.4956893,67.6395189 53.4956893,64.9066753 L53.4956893,32.328466 C53.4956893,29.5956224 52.8844045,27.5819784 51.6618166,26.2874736 C50.4392287,24.9929687 48.6053743,24.345726 46.1601985,24.345726 C43.7150227,24.345726 41.8811683,24.9929687 40.6585804,26.2874736 C39.4359924,27.5819784 38.8247077,29.5956224 38.8247077,32.328466 L38.8247077,64.9066753 C38.8247077,67.7114358 39.4359924,69.7430588 40.6585804,71.0016052 C41.8811683,72.2601516 43.7150227,72.8894153 46.1601985,72.8894153 C48.6053743,72.8894153 50.4392287,72.2421726 51.6618166,70.9476677 Z M91.0361424,90.5808932 L91.0361424,72.8894153 L96.4298857,72.8894153 L96.4298857,24.345726 L91.0361424,24.345726 L91.0361424,6.65424811 L155.545312,6.65424811 L155.545312,34.5938382 L136.451461,34.5938382 L136.451461,24.345726 L126.634848,24.345726 L126.634848,42.2529536 L142.923953,42.2529536 L142.923953,54.5506882 L126.634848,54.5506882 L126.634848,72.8894153 L140.766455,72.8894153 L140.766455,90.5808932 L91.0361424,90.5808932 Z M159.213057,90.5808932 L159.213057,72.8894153 L164.6068,72.8894153 L164.6068,24.345726 L159.213057,24.345726 L159.213057,6.65424811 L223.722227,6.65424811 L223.722227,34.5938382 L204.628375,34.5938382 L204.628375,24.345726 L194.811763,24.345726 L194.811763,42.2529536 L211.100867,42.2529536 L211.100867,54.5506882 L194.811763,54.5506882 L194.811763,72.8894153 L208.94337,72.8894153 L208.94337,90.5808932 L159.213057,90.5808932 Z M241.251892,90.311206 C235.102994,89.1245766 230.374526,87.7761543 227.066347,86.2658986 L227.066347,64.9066753 L250.798818,64.9066753 C250.798818,67.1361003 251.302229,68.7542071 252.309066,69.7610442 C253.315903,70.7678813 255.149757,71.2712923 257.810684,71.2712923 C260.040109,71.2712923 261.640237,70.929692 262.611115,70.2464811 C263.581994,69.5632702 264.067426,68.5384693 264.067426,67.1720475 C264.067426,66.0213765 263.599973,65.0325334 262.665053,64.2054887 C261.730133,63.3784439 260.112026,62.5334326 257.810684,61.6704293 L248.533446,58.4341834 C240.550666,55.4136721 234.815376,51.8538371 231.327405,47.7545717 C227.839433,43.6553064 226.095474,38.1177853 226.095474,31.1418425 C226.095474,22.655644 228.882213,16.2011958 234.455776,11.7783042 C240.029338,7.35541262 249.324463,5.144 262.341428,5.144 C268.598202,5.144 274.477323,5.77326375 279.978969,7.03181014 C285.480614,8.29035653 289.921419,9.96240022 293.301515,12.0479914 L293.301515,31.3575922 L271.726542,31.3575922 C271.726542,27.7617454 269.49715,25.963849 265.0383,25.963849 C262.880792,25.963849 261.35258,26.2335334 260.453618,26.7729105 C259.554656,27.3122875 259.105182,28.2651726 259.105182,29.6315944 C259.105182,30.8541823 259.626572,31.8250464 260.669368,32.5442157 C261.712163,33.2633851 263.420165,34.0185016 265.793424,34.8095879 L275.178537,38.0458339 C282.801732,40.6348436 288.357232,43.9969099 291.845204,48.1321338 C295.333175,52.2673576 297.077135,57.6790259 297.077135,64.367301 C297.077135,73.5007519 294.002732,80.4046742 287.853834,85.0792751 C281.704936,89.7538759 272.697475,92.0911413 260.83118,92.0911413 C253.927154,92.0911413 247.40079,91.4978355 241.251892,90.311206 Z M300.097631,90.5808932 L300.097631,72.8894153 L305.491374,72.8894153 L305.491374,24.345726 L300.097631,24.345726 L300.097631,6.65424811 L341.09008,6.65424811 L341.09008,24.345726 L335.696337,24.345726 L335.696337,72.8894153 L341.09008,72.8894153 L341.09008,90.5808932 L300.097631,90.5808932 Z M345.405074,72.8894153 L350.798818,72.8894153 L350.798818,24.4536009 L345.405074,24.4536009 L345.405074,6.65424811 L389.20227,6.65424811 C401.212398,6.65424811 410.759228,9.9443986 417.843046,16.5247983 C424.926865,23.105198 428.468721,33.8026818 428.468721,48.6175707 C428.468721,63.4324595 424.926865,74.1299434 417.843046,80.710343 C410.759228,87.2907427 401.212398,90.5808932 389.20227,90.5808932 L345.405074,90.5808932 L345.405074,72.8894153 Z M387.260522,72.8894153 C389.705698,72.8894153 391.539552,72.2421726 392.76214,70.9476677 C393.984728,69.6531629 394.596013,67.6395189 394.596013,64.9066753 L394.596013,32.328466 C394.596013,27.0066127 392.150874,24.345726 387.260522,24.345726 L381.00378,24.345726 L381.00378,72.8894153 L387.260522,72.8894153 Z M432.136466,90.5808932 L432.136466,72.8894153 L437.530209,72.8894153 L437.530209,24.345726 L432.136466,24.345726 L432.136466,6.65424811 L504.952,6.65424811 L504.952,39.2324574 L480.78803,39.2324574 L480.78803,24.345726 L467.735172,24.345726 L467.735172,41.3899547 L477.22816,41.3899547 L477.22816,53.6876893 L467.735172,53.6876893 L467.735172,72.8894153 L480.78803,72.8894153 L480.78803,55.8451866 L504.952,55.8451866 L504.952,90.5808932 L432.136466,90.5808932 Z" id="OFFSIDE-Copy-15" fill="#F5AA19"></path>
        <path d="M13.6855491,78.7351543 C6.52981392,71.8311284 2.952,60.7920442 2.952,45.6175707 C2.952,30.4430971 6.52981392,19.4040129 13.6855491,12.4999871 C20.8412843,5.59596117 30.9993991,2.144 44.1601985,2.144 C57.3209978,2.144 67.4791127,5.59596117 74.6348479,12.4999871 C81.7905831,19.4040129 85.368397,30.4430971 85.368397,45.6175707 C85.368397,60.7920442 81.7905831,71.8311284 74.6348479,78.7351543 C67.4791127,85.6391802 57.3209978,89.0911413 44.1601985,89.0911413 C30.9993991,89.0911413 20.8412843,85.6391802 13.6855491,78.7351543 Z M49.6618166,67.9476677 C50.8844045,66.6531629 51.4956893,64.6395189 51.4956893,61.9066753 L51.4956893,29.328466 C51.4956893,26.5956224 50.8844045,24.5819784 49.6618166,23.2874736 C48.4392287,21.9929687 46.6053743,21.345726 44.1601985,21.345726 C41.7150227,21.345726 39.8811683,21.9929687 38.6585804,23.2874736 C37.4359924,24.5819784 36.8247077,26.5956224 36.8247077,29.328466 L36.8247077,61.9066753 C36.8247077,64.7114358 37.4359924,66.7430588 38.6585804,68.0016052 C39.8811683,69.2601516 41.7150227,69.8894153 44.1601985,69.8894153 C46.6053743,69.8894153 48.4392287,69.2421726 49.6618166,67.9476677 Z M89.0361424,87.5808932 L89.0361424,69.8894153 L94.4298857,69.8894153 L94.4298857,21.345726 L89.0361424,21.345726 L89.0361424,3.65424811 L153.545312,3.65424811 L153.545312,31.5938382 L134.451461,31.5938382 L134.451461,21.345726 L124.634848,21.345726 L124.634848,39.2529536 L140.923953,39.2529536 L140.923953,51.5506882 L124.634848,51.5506882 L124.634848,69.8894153 L138.766455,69.8894153 L138.766455,87.5808932 L89.0361424,87.5808932 Z M157.213057,87.5808932 L157.213057,69.8894153 L162.6068,69.8894153 L162.6068,21.345726 L157.213057,21.345726 L157.213057,3.65424811 L221.722227,3.65424811 L221.722227,31.5938382 L202.628375,31.5938382 L202.628375,21.345726 L192.811763,21.345726 L192.811763,39.2529536 L209.100867,39.2529536 L209.100867,51.5506882 L192.811763,51.5506882 L192.811763,69.8894153 L206.94337,69.8894153 L206.94337,87.5808932 L157.213057,87.5808932 Z M239.251892,87.311206 C233.102994,86.1245766 228.374526,84.7761543 225.066347,83.2658986 L225.066347,61.9066753 L248.798818,61.9066753 C248.798818,64.1361003 249.302229,65.7542071 250.309066,66.7610442 C251.315903,67.7678813 253.149757,68.2712923 255.810684,68.2712923 C258.040109,68.2712923 259.640237,67.929692 260.611115,67.2464811 C261.581994,66.5632702 262.067426,65.5384693 262.067426,64.1720475 C262.067426,63.0213765 261.599973,62.0325334 260.665053,61.2054887 C259.730133,60.3784439 258.112026,59.5334326 255.810684,58.6704293 L246.533446,55.4341834 C238.550666,52.4136721 232.815376,48.8538371 229.327405,44.7545717 C225.839433,40.6553064 224.095474,35.1177853 224.095474,28.1418425 C224.095474,19.655644 226.882213,13.2011958 232.455776,8.77830421 C238.029338,4.35541262 247.324463,2.144 260.341428,2.144 C266.598202,2.144 272.477323,2.77326375 277.978969,4.03181014 C283.480614,5.29035653 287.921419,6.96240022 291.301515,9.04799137 L291.301515,28.3575922 L269.726542,28.3575922 C269.726542,24.7617454 267.49715,22.963849 263.0383,22.963849 C260.880792,22.963849 259.35258,23.2335334 258.453618,23.7729105 C257.554656,24.3122875 257.105182,25.2651726 257.105182,26.6315944 C257.105182,27.8541823 257.626572,28.8250464 258.669368,29.5442157 C259.712163,30.2633851 261.420165,31.0185016 263.793424,31.8095879 L273.178537,35.0458339 C280.801732,37.6348436 286.357232,40.9969099 289.845204,45.1321338 C293.333175,49.2673576 295.077135,54.6790259 295.077135,61.367301 C295.077135,70.5007519 292.002732,77.4046742 285.853834,82.0792751 C279.704936,86.7538759 270.697475,89.0911413 258.83118,89.0911413 C251.927154,89.0911413 245.40079,88.4978355 239.251892,87.311206 Z M298.097631,87.5808932 L298.097631,69.8894153 L303.491374,69.8894153 L303.491374,21.345726 L298.097631,21.345726 L298.097631,3.65424811 L339.09008,3.65424811 L339.09008,21.345726 L333.696337,21.345726 L333.696337,69.8894153 L339.09008,69.8894153 L339.09008,87.5808932 L298.097631,87.5808932 Z M343.405074,69.8894153 L348.798818,69.8894153 L348.798818,21.4536009 L343.405074,21.4536009 L343.405074,3.65424811 L387.20227,3.65424811 C399.212398,3.65424811 408.759228,6.9443986 415.843046,13.5247983 C422.926865,20.105198 426.468721,30.8026818 426.468721,45.6175707 C426.468721,60.4324595 422.926865,71.1299434 415.843046,77.710343 C408.759228,84.2907427 399.212398,87.5808932 387.20227,87.5808932 L343.405074,87.5808932 L343.405074,69.8894153 Z M385.260522,69.8894153 C387.705698,69.8894153 389.539552,69.2421726 390.76214,67.9476677 C391.984728,66.6531629 392.596013,64.6395189 392.596013,61.9066753 L392.596013,29.328466 C392.596013,24.0066127 390.150874,21.345726 385.260522,21.345726 L379.00378,21.345726 L379.00378,69.8894153 L385.260522,69.8894153 Z M430.136466,87.5808932 L430.136466,69.8894153 L435.530209,69.8894153 L435.530209,21.345726 L430.136466,21.345726 L430.136466,3.65424811 L502.952,3.65424811 L502.952,36.2324574 L478.78803,36.2324574 L478.78803,21.345726 L465.735172,21.345726 L465.735172,38.3899547 L475.22816,38.3899547 L475.22816,50.6876893 L465.735172,50.6876893 L465.735172,69.8894153 L478.78803,69.8894153 L478.78803,52.8451866 L502.952,52.8451866 L502.952,87.5808932 L430.136466,87.5808932 Z" id="OFFSIDE-Copy-14" fill="#FFFFFF"></path>
        <g id="OFFSIDE-Copy-13">
            <use fill="#000000" xlink:href="#path-2"></use>
            <use fill="url(#linearGradient-1)" xlink:href="#path-2"></use>
        </g>
    </g>
</svg>