<?xml version="1.0" standalone="no"?>
<!DOCTYPE svg PUBLIC "-//W3C//DTD SVG 20010904//EN"
 "http://www.w3.org/TR/2001/REC-SVG-20010904/DTD/svg10.dtd">
<svg version="1.0" xmlns="http://www.w3.org/2000/svg"
 width="650.000000pt" height="650.000000pt" viewBox="0 0 650.000000 650.000000"
 preserveAspectRatio="xMidYMid meet">
<metadata>
Created by potrace 1.11, written by Peter Selinger 2001-2013
</metadata>
<g transform="translate(0.000000,650.000000) scale(0.100000,-0.100000)"
fill="#000000" stroke="none">
<path d="M3069 6495 c-2 -1 -34 -6 -70 -9 -37 -3 -98 -10 -135 -17 -38 -6 -78
-13 -89 -15 -226 -37 -601 -176 -783 -291 -29 -18 -55 -33 -57 -33 -10 0 -200
-133 -269 -188 -132 -104 -299 -270 -393 -387 -17 -22 -51 -65 -75 -95 -24
-30 -53 -70 -63 -87 -11 -18 -23 -33 -27 -33 -4 0 -8 -4 -8 -9 0 -5 -22 -45
-49 -89 -48 -77 -125 -225 -171 -327 -41 -90 -107 -274 -113 -315 -2 -8 -6
-20 -10 -27 -4 -6 -9 -24 -12 -40 -2 -15 -11 -55 -20 -88 -15 -59 -18 -73 -30
-145 -4 -19 -8 -46 -11 -60 -2 -14 -7 -47 -10 -75 -3 -27 -9 -75 -13 -105 -10
-58 -7 -451 3 -535 10 -86 42 -290 46 -290 1 0 3 -9 4 -20 9 -64 97 -354 130
-430 8 -16 24 -55 37 -85 58 -139 140 -284 291 -514 7 -11 21 -26 30 -35 10
-8 18 -21 18 -27 0 -7 3 -14 8 -16 4 -1 32 -32 62 -68 30 -36 64 -74 75 -86
72 -76 408 -425 495 -514 58 -60 182 -188 275 -285 94 -98 213 -221 265 -275
52 -53 177 -182 277 -286 258 -269 351 -364 469 -486 l104 -107 99 102 c121
125 251 259 486 503 99 102 226 234 283 292 56 58 102 106 102 106 0 1 53 56
118 123 64 66 207 214 317 328 110 114 238 247 285 295 143 148 213 223 265
285 74 87 155 193 155 202 0 5 11 20 25 35 14 15 25 30 25 33 0 3 16 32 37 63
41 65 160 294 186 362 31 78 79 204 82 220 3 8 16 56 30 105 14 50 27 99 29
110 2 11 9 41 15 68 6 26 14 64 17 83 3 20 7 46 10 58 2 11 7 48 10 81 4 33
11 68 16 78 5 9 5 17 0 17 -5 0 -5 21 -1 48 8 49 5 438 -4 482 -3 14 -8 52
-11 85 -13 131 -86 456 -107 480 -5 5 -9 19 -9 32 0 13 -4 31 -10 41 -5 9 -26
60 -46 112 -36 93 -122 280 -133 290 -4 3 -19 30 -35 60 -16 30 -39 69 -52 87
-13 17 -24 34 -24 38 0 6 -34 56 -55 82 -5 6 -21 28 -35 48 -14 20 -59 77
-101 128 -247 296 -537 524 -879 688 -127 62 -372 151 -445 163 -5 1 -14 4
-20 8 -5 3 -26 9 -45 12 -19 3 -46 8 -60 11 -14 3 -40 8 -59 10 -18 3 -37 7
-41 10 -4 3 -32 7 -61 10 -30 3 -67 8 -84 10 -35 7 -451 16 -456 10z"/>
</g>
</svg>
